<svg width="208" height="208" viewBox="0 0 208 208" fill="none" xmlns="http://www.w3.org/2000/svg">
<path fill-rule="evenodd" clip-rule="evenodd" d="M104 0C161.438 0 208 46.5623 208 104C208 161.438 161.438 208 104 208C46.5623 208 0 161.438 0 104C0 46.5623 46.5623 0 104 0Z" fill="black"/>
<path d="M146.629 65.2523C138.557 61.5606 130.037 58.9408 121.285 57.4596C120.093 59.6016 119.013 61.8041 118.049 64.0583C113.394 63.3563 108.693 63.0029 103.985 63.0013C99.2855 63.0013 94.562 63.3584 89.9198 64.0494C88.9716 61.8114 87.8707 59.592 86.6755 57.4588C77.9236 58.954 69.4028 61.5789 61.3267 65.2677C45.2867 88.996 40.9398 112.132 43.1133 134.938C52.5057 141.876 63.0175 147.152 74.1922 150.538C76.6984 147.154 78.9433 143.553 80.849 139.805C77.2126 138.45 73.7034 136.776 70.3625 134.801C71.242 134.164 72.1017 133.507 72.932 132.869C82.6463 137.431 93.2604 139.811 103.999 139.811C114.739 139.811 125.353 137.431 135.067 132.868C135.908 133.554 136.768 134.211 137.637 134.8C134.289 136.779 130.774 138.458 127.131 139.818C129.044 143.574 131.271 147.161 133.788 150.542C144.973 147.167 155.494 141.891 164.888 134.945L164.885 134.948C167.436 108.5 160.529 85.5766 146.629 65.2523ZM83.5977 120.912C77.5413 120.912 72.5372 115.416 72.5372 108.654C72.5372 101.892 77.3671 96.3471 83.5786 96.3471C89.7898 96.3471 94.755 101.892 94.6485 108.654C94.5425 115.416 89.7707 120.912 83.5977 120.912ZM124.401 120.912C118.335 120.912 113.35 115.416 113.35 108.654C113.35 101.892 118.18 96.3471 124.401 96.3471C130.622 96.3471 135.549 101.892 135.442 108.654C135.336 115.416 130.574 120.912 124.401 120.912Z" fill="white"/>
</svg>
